<svg width="198" height="253" viewBox="0 0 198 253" fill="none" xmlns="http://www.w3.org/2000/svg">
<path fill-rule="evenodd" clip-rule="evenodd" d="M66.2963 33.2917C66.2963 36.073 64.0463 38.3282 61.2755 38.3282C58.5046 38.3282 56.2546 36.073 56.2546 33.2917C56.2546 30.5157 58.5046 28.2605 61.2755 28.2605C64.0463 28.2605 66.2963 30.5157 66.2963 33.2917Z" fill="white"/>
<path fill-rule="evenodd" clip-rule="evenodd" d="M126.536 33.2917C126.536 36.073 124.286 38.3282 121.515 38.3282C118.744 38.3282 116.494 36.073 116.494 33.2917C116.494 30.5157 118.744 28.2605 121.515 28.2605C124.286 28.2605 126.536 30.5157 126.536 33.2917Z" fill="white"/>
<path fill-rule="evenodd" clip-rule="evenodd" d="M127.176 0C127.374 0 127.562 0.104167 127.666 0.28125C127.666 0.28125 129.317 2.78125 130.041 6.47396C130.312 7.83333 130.437 9.35417 130.322 10.9635C130.249 11.9375 130.093 12.9323 129.812 13.9635C134.244 17.349 137.833 21.3333 140.697 25.6667C151.01 41.2344 152.036 61.3073 150.51 74.0833C152.473 71.6094 155.088 69.0938 158.468 67.1406C161.322 65.4948 164.723 64.2656 168.729 63.8177C171.906 63.4479 175.463 63.6146 179.426 64.4271C179.916 64.5312 180.281 64.9167 180.359 65.4115C180.421 65.901 180.166 66.3854 179.729 66.6042C177.604 67.6771 176.843 69.2604 176.76 70.8438C176.614 73.7083 178.4 76.5208 178.4 76.5208C178.65 76.9062 178.619 77.4219 178.307 77.776C178.005 78.125 177.499 78.2292 177.072 78.0312C177.072 78.0312 174.926 76.9583 172.52 76.4427C171.005 76.1198 169.374 75.9635 168.213 76.6146C166.989 77.2969 166.468 78.849 166.999 81.7865C167.072 82.1406 166.906 82.5104 166.593 82.6875C166.281 82.8646 165.88 82.8229 165.619 82.5833C163.437 80.5885 160.744 80.0104 158.098 80.125C154.619 80.276 151.176 81.6042 148.885 82.7083C146.9 90.8594 144.39 97.3281 143.354 102.964C142.729 106.443 142.666 109.578 143.77 112.589C145.005 115.948 147.203 117.354 149.953 117.375C153.697 117.406 156.281 115.182 160.822 112.109C170.828 105.333 183.734 106.099 191.255 113.432C197.364 119.385 199.999 129.729 194.348 143.974C194.223 144.292 193.88 144.479 193.536 144.396C193.197 144.323 192.968 144.005 192.999 143.651C193.953 132.344 190.312 126.76 184.078 127.505C179.229 128.083 173.067 132.354 166.635 140.302C158.343 150.552 148.812 159.615 134.864 164.755C122.666 169.245 108.619 170.724 93.2807 167.385C68.1244 161.901 52.7546 150.604 43.3275 137.734C28.5202 117.5 28.4369 93.2812 28.4057 81.2292V81.4271C26.5515 80.7656 24.4109 80.2188 22.2546 80.125C19.6088 80.0104 16.9213 80.5885 14.7442 82.5833C14.4734 82.8229 14.0879 82.8646 13.765 82.6875C13.4473 82.5104 13.2911 82.1406 13.3536 81.7865C13.89 78.849 13.364 77.2969 12.1504 76.6146C10.9786 75.9635 9.34836 76.1198 7.83273 76.4427C5.42648 76.9583 3.28586 78.0312 3.28586 78.0312C2.86398 78.2292 2.36398 78.125 2.05148 77.776C1.74419 77.4219 1.70253 76.9062 1.96815 76.5208C1.96815 76.5208 3.75461 73.7083 3.59836 70.8438C3.51502 69.2604 2.75982 67.6771 0.6244 66.6042C0.1869 66.3854 -0.0526822 65.901 0.00981646 65.4115C0.0723178 64.9167 0.447317 64.5312 0.931692 64.4271C4.89523 63.6146 8.45773 63.4479 11.64 63.8177C15.6348 64.2656 19.0463 65.4948 21.9004 67.1406C24.5671 68.6823 26.765 70.5833 28.5411 72.5417C29.0827 57.5312 31.5411 39.6094 41.1348 25.7188C44.0098 21.5573 47.5202 17.75 51.8119 14.474C51.4369 13.2813 51.2338 12.1042 51.1504 10.9635C51.0359 9.35417 51.1609 7.83333 51.4369 6.47396C52.1557 2.78125 53.8067 0.28125 53.8067 0.28125C53.9004 0.104167 54.1036 0 54.3015 0C54.4994 0 54.6869 0.114583 54.7807 0.291667C54.7807 0.291667 56.2546 2.90625 59.9786 5.97917C60.8171 6.68229 61.7754 7.40625 62.8536 8.13021C70.6973 4.8125 80.3223 2.875 92.1192 2.86458C102.89 2.86458 111.791 4.67708 119.119 7.78125C119.999 7.17708 120.786 6.57813 121.494 5.97917C125.208 2.90625 126.682 0.291667 126.682 0.291667C126.786 0.114583 126.968 0 127.176 0ZM92.1192 5.85417C81.7754 5.83333 73.1661 7.35417 66.0254 10.0156L66.4629 10.25C66.5671 10.3125 66.6609 10.3854 66.7338 10.4792C67.8432 11.8021 68.1973 13.4167 68.0202 15.0521C67.7911 17.2865 66.5046 19.5521 64.8848 21.0729C63.5984 22.2708 61.9682 22.6979 60.4265 22.6771C58.4109 22.6562 56.5984 21.8073 55.8796 21.0938C54.6557 19.8229 53.6921 18.526 52.9734 17.224C49.1869 20.1823 46.0359 23.599 43.4421 27.3333C32.1921 43.5104 31.0411 65.4323 31.0098 81.2292C30.9786 92.974 30.8952 116.568 45.2338 136.339C54.3432 148.906 69.2754 159.896 93.7286 165.359C108.64 168.698 122.333 167.312 134.234 163C147.895 158.052 157.203 149.24 165.359 139.266C170.65 132.792 175.796 128.724 180.208 126.964C183.505 125.651 186.411 125.599 188.744 126.698C192.072 128.281 194.286 132.354 194.536 138.896C197.562 127.792 195.114 119.651 189.979 114.76C183.005 108.135 171.161 107.62 162.062 113.932C157.119 117.365 154.062 119.745 149.942 119.745C146.229 119.755 143.176 117.974 141.473 113.453C140.176 110.042 140.156 106.474 140.843 102.51C141.963 96.1354 144.953 88.6667 146.963 78.9323C149.307 67.6042 149.692 44.5573 138.218 27.3229C135.666 23.4844 132.52 19.9375 128.671 16.8854C127.937 18.3125 126.921 19.7188 125.583 21.0938C124.874 21.8073 123.057 22.6562 121.046 22.6771C119.51 22.6979 117.88 22.2708 116.593 21.0729C114.968 19.5521 113.682 17.2865 113.442 15.0521C113.275 13.4167 113.619 11.8021 114.739 10.4792L115.01 10.25C115.328 10.0885 115.64 9.92188 115.932 9.75521C109.343 7.28125 101.468 5.84375 92.1192 5.85417ZM127.572 71.2865L127.697 71.3073C132.208 72.4792 137.656 74.7448 140.583 77.9688C143.031 80.6719 143.791 84.0104 141.307 87.9323C139.213 91.151 136.973 91.8958 134.833 91.3698C133.984 91.1615 133.124 90.7292 132.291 90.1146C131.359 89.4219 130.437 88.5052 129.536 87.4375C128.775 86.5365 128.031 85.5521 127.312 84.5104C126.265 83.0208 125.281 81.4583 124.275 80.0208C124.078 79.7812 124.119 79.4323 124.364 79.2344C124.604 79.0365 124.958 79.0781 125.145 79.3177C126.557 80.849 128.01 82.5417 129.421 84.1354C130.932 85.8333 132.395 87.375 133.848 88.3073C134.661 88.8438 135.458 89.1771 136.275 89.1042C137.328 89 138.343 88.2344 139.411 86.6615C141.4 83.8177 140.895 81.3021 139.161 79.2031C136.567 76.0469 131.546 73.7188 127.395 72.3854C127.093 72.3021 126.921 71.9896 127.01 71.6927C127.093 71.3906 127.406 71.224 127.697 71.3073L127.572 71.2865ZM46.3952 70.2656C46.6765 70.151 46.9994 70.276 47.1244 70.5729C47.2494 70.8542 47.114 71.1771 46.8327 71.3073C42.8692 73.1302 38.1609 76.0573 35.9786 79.5104C34.515 81.8073 34.3119 84.3646 36.6348 86.9427C37.8796 88.3698 38.9786 89.0104 40.0463 88.9792C40.8588 88.9583 41.614 88.5312 42.3692 87.901C43.6869 86.7969 44.9525 85.0781 46.239 83.2188C47.4473 81.4583 48.6817 79.6042 49.8952 77.9115C50.0619 77.651 50.4109 77.5677 50.6713 77.7344C50.9317 77.8906 51.015 78.2396 50.8484 78.5104C50.0202 80.0521 49.239 81.7188 48.39 83.3281C47.7963 84.4479 47.1765 85.5312 46.5307 86.5052C45.765 87.6771 44.9629 88.7083 44.1244 89.5052C43.3692 90.2188 42.5775 90.75 41.7494 91.0573C39.6869 91.8438 37.3796 91.3698 34.9109 88.4323C31.9629 84.849 32.3171 81.4479 34.4161 78.4583C36.9265 74.901 42.0619 71.9896 46.3952 70.2656ZM168.989 66.2083C165.328 66.6042 162.203 67.6667 159.546 69.1042C156.301 70.8438 153.739 73.1198 151.775 75.3646C151.114 76.1198 150.52 76.875 149.994 77.599C149.88 78.2604 149.755 78.901 149.63 79.5C149.505 80.0729 149.38 80.6406 149.255 81.1979C151.583 80.0729 154.775 78.8802 158.015 78.6562C160.442 78.4896 162.89 78.8594 165.078 80.125C164.921 77.349 165.921 75.8073 167.291 75C168.801 74.1146 170.921 74.125 172.921 74.5052C173.807 74.6823 174.676 74.9219 175.432 75.1667C174.791 73.5312 174.249 71.3073 174.76 69.1979C175.01 68.1823 175.505 67.1823 176.328 66.2917C173.671 65.9583 171.239 65.9688 168.989 66.2083ZM4.02544 66.2917C4.86398 67.1823 5.34315 68.1823 5.59315 69.1979C6.11919 71.3073 5.5619 73.5312 4.92648 75.1667C5.67648 74.9219 6.54627 74.6823 7.44732 74.5052C9.43169 74.125 11.5567 74.1146 13.0619 75C14.4421 75.8073 15.4369 77.349 15.2807 80.125C17.4734 78.8594 19.9213 78.4896 22.3379 78.6562C24.4629 78.8073 26.5619 79.3594 28.4161 80.0417C28.4161 78.4896 28.4265 76.8854 28.4682 75.2396L28.5827 75.3646C26.614 73.1198 24.0619 70.8438 20.8119 69.1042C18.1557 67.6667 15.0411 66.6042 11.3692 66.2083C9.12961 65.9688 6.69211 65.9583 4.02544 66.2917ZM102.166 38.401C102.682 38.0469 103.369 38.1615 103.729 38.6719L108.255 45.3229C108.588 45.7865 108.473 46.4271 108.005 46.75L99.3119 52.6771L106.906 58.1719C107.124 58.3177 107.197 58.6042 107.104 58.8333L107.041 58.9479L102.692 65.724C102.421 66.125 101.874 66.2188 101.489 65.9375C101.489 65.9375 97.9317 63.6146 93.4473 60.5938C92.515 59.9688 91.5411 59.3073 90.5619 58.6354L81.4213 64.8542C81.1661 65.0312 80.8223 64.9688 80.6452 64.7188L75.7807 58.2865C75.5098 57.901 75.6036 57.3542 75.9994 57.0833C75.9994 57.0833 78.4994 55.1927 81.9734 52.6458C77.9994 49.8229 75.0202 47.6615 75.0202 47.6615C74.515 47.3073 74.39 46.6146 74.7442 46.099L79.4317 39.5573C79.7546 39.0938 80.3952 38.9792 80.8536 39.3021L90.6452 46.3958C91.8692 45.5208 93.0775 44.6719 94.2286 43.875C98.6661 40.7812 102.166 38.401 102.166 38.401ZM80.5411 41.5677L77.2129 46.4583C78.5411 47.3594 81.1661 49.1615 84.2442 51.3021C85.9161 52.4688 87.7129 53.7344 89.5046 55.0052C91.2911 56.2865 93.0775 57.5729 94.7234 58.7708C97.9317 61.1198 100.619 63.125 101.812 64.0156L105.786 58.7604L80.5411 41.5677ZM77.6869 58.0469L81.2494 63.5938L89.2963 57.7656C88.9057 57.5 88.5307 57.2292 88.1452 56.9688C86.3327 55.7188 84.5359 54.4479 82.8744 53.276L83.8432 53.9688C81.0619 55.8229 78.7859 57.3333 77.6869 58.0469ZM102.557 40.875C101.26 41.8229 98.6661 43.6771 95.5984 45.8385C94.6713 46.5 93.6973 47.1927 92.7025 47.8854L97.8171 51.5833L105.984 45.6823L102.557 40.875ZM127.093 1.80208C126.369 2.92708 124.906 4.89062 122.458 7.09896C120.807 8.59896 118.692 10.2083 116.057 11.75C115.218 12.9115 115.197 14.3281 115.598 15.6719C116.025 17.1198 116.958 18.4844 118.057 19.4375C118.911 20.1927 119.989 20.401 120.984 20.3698C122.26 20.3177 123.442 19.875 123.88 19.4167C125.156 18.1146 126.078 16.7604 126.755 15.4167C127.551 13.8333 127.999 12.25 128.197 10.75C128.39 9.32292 128.38 7.97396 128.249 6.74479C128.02 4.59375 127.479 2.82292 127.093 1.80208ZM54.3744 1.80208C53.9942 2.82292 53.4421 4.59375 53.2234 6.74479C53.0984 7.97396 53.0775 9.32292 53.265 10.75C53.4629 12.25 53.9213 13.8333 54.7182 15.4167C55.4004 16.7604 56.3171 18.1146 57.5932 19.4167C58.0359 19.875 59.2129 20.3177 60.4786 20.3698C61.4838 20.401 62.5515 20.1927 63.4213 19.4375C64.5098 18.4844 65.4473 17.1198 65.8796 15.6719C66.2754 14.3281 66.2546 12.9115 65.4161 11.75C62.7702 10.2083 60.6609 8.59896 59.0046 7.09896C56.5671 4.89062 55.1036 2.92708 54.3744 1.80208Z" fill="white"/>
<path d="M73.4236 236.456L72.9916 236.312C72.9596 236.408 72.8796 236.44 72.7516 236.408C72.6556 236.408 72.5756 236.376 72.5116 236.312C72.3516 236.056 72.1756 235.944 71.9836 235.976C71.7916 236.04 71.5356 236.008 71.2156 235.88H71.1676C71.0716 235.88 70.9596 235.896 70.8316 235.928C70.7356 235.992 70.6396 236.008 70.5436 235.976L70.2076 235.688C70.2076 235.72 70.1756 235.736 70.1116 235.736C70.0156 235.736 69.9196 235.72 69.8236 235.688C69.7276 235.656 69.6956 235.624 69.7276 235.592L68.9116 235.16L68.8156 235.208L68.2876 234.632C68.2556 234.664 68.2236 234.68 68.1916 234.68C68.1276 234.68 68.0636 234.632 67.9996 234.536C67.9356 234.472 67.8876 234.44 67.8556 234.44C67.6636 234.28 67.4396 234.12 67.1836 233.96C66.9596 233.832 66.7356 233.688 66.5116 233.528C66.4796 233.496 66.4636 233.432 66.4636 233.336C66.4636 233.272 66.4316 233.224 66.3676 233.192C66.2716 233.096 66.1596 233 66.0316 232.904C65.9036 232.808 65.8236 232.696 65.7916 232.568L65.5996 232.616C65.4076 232.264 65.1836 231.944 64.9276 231.656C64.6716 231.368 64.5596 230.984 64.5916 230.504H64.4956L63.8716 230.264V230.12C63.8396 230.12 63.7916 230.136 63.7276 230.168C63.6636 230.168 63.5836 230.152 63.4876 230.12C63.2636 230.024 63.0556 229.912 62.8636 229.784C62.6716 229.624 62.5276 229.432 62.4316 229.208C62.3996 229.112 62.3516 229.064 62.2876 229.064C62.2556 229.064 62.2236 229.048 62.1916 229.016C62.1276 228.856 62.0316 228.712 61.9036 228.584C61.7756 228.456 61.7276 228.296 61.7596 228.104L61.9036 226.904C62.1596 226.616 62.3516 226.472 62.4796 226.472C62.6076 226.472 62.6716 226.616 62.6716 226.904L62.3836 227.384L62.4316 227.96C62.4956 228.024 62.5916 228.056 62.7196 228.056C62.8476 228.056 62.9436 228.04 63.0076 228.008L62.9596 228.296L63.1516 228.632L63.1996 228.536L63.4876 228.632L63.7276 228.968C63.7916 228.84 63.8556 228.84 63.9196 228.968C63.9836 229.064 64.0156 229.112 64.0156 229.112L64.2556 228.92C64.2236 228.76 64.1916 228.6 64.1596 228.44C64.1276 228.248 64.1116 228.072 64.1116 227.912C64.1116 227.688 64.1276 227.528 64.1596 227.432C64.2556 227.08 64.2876 226.808 64.2556 226.616C64.2556 226.616 64.3196 226.504 64.4476 226.28C64.5756 226.024 64.7036 225.864 64.8316 225.8L65.2156 225.56L65.3116 225.704C65.2796 225.736 65.2156 225.832 65.1196 225.992C65.0236 226.152 64.9436 226.264 64.8796 226.328C64.6236 226.872 64.5276 227.416 64.5916 227.96C64.5916 227.992 64.5916 228.04 64.5916 228.104C64.6236 228.136 64.6236 228.2 64.5916 228.296V228.968C64.6556 229 64.6876 229.128 64.6876 229.352C64.6876 229.544 64.7196 229.624 64.7836 229.592C64.9436 229.56 65.0716 229.608 65.1676 229.736C65.2956 229.832 65.3916 229.784 65.4556 229.592L65.7916 229.976H66.2716C66.2396 230.04 66.3196 230.104 66.5116 230.168C66.7356 230.2 66.9596 230.216 67.1836 230.216C67.4076 230.216 67.5196 230.216 67.5196 230.216L67.8076 230.456C67.8076 230.424 67.8556 230.456 67.9516 230.552H67.9996C68.0956 230.552 68.1916 230.52 68.2876 230.456C68.4156 230.392 68.5116 230.36 68.5756 230.36C68.7356 230.392 68.8956 230.456 69.0556 230.552C69.2476 230.648 69.3916 230.648 69.4876 230.552L69.8716 230.696L70.3036 230.456C70.3676 230.52 70.4956 230.584 70.6876 230.648C70.7516 230.68 70.8476 230.696 70.9756 230.696C71.2636 230.696 71.4716 230.632 71.5996 230.504L71.7916 230.744C72.2396 230.712 72.6876 230.712 73.1356 230.744C73.6156 230.744 74.0636 230.744 74.4796 230.744C74.8316 230.744 75.1676 230.744 75.4876 230.744C75.8396 230.712 76.1756 230.68 76.4956 230.648C76.5916 230.648 76.6716 230.648 76.7356 230.648C76.7996 230.616 76.8476 230.6 76.8796 230.6C77.1036 230.6 77.3596 230.536 77.6476 230.408C77.9356 230.28 78.1756 230.216 78.3676 230.216C78.4316 230.216 78.5756 230.168 78.7996 230.072C79.0556 229.944 79.1356 230.024 79.0396 230.312L78.5596 230.552L78.4156 230.504C78.3836 230.536 78.2396 230.616 77.9836 230.744C77.7596 230.84 77.6316 230.856 77.5996 230.792L76.5916 230.936C76.4636 230.968 76.2716 231 76.0156 231.032C75.7596 231.064 75.6316 231.064 75.6316 231.032L75.1996 231.128C75.1996 231.096 75.1676 231.08 75.1036 231.08C74.9756 231.08 74.7836 231.128 74.5276 231.224C74.3036 231.32 74.1756 231.352 74.1436 231.32C74.1116 231.256 73.9516 231.256 73.6636 231.32C73.4076 231.352 73.1516 231.368 72.8956 231.368C72.5116 231.368 72.3036 231.304 72.2716 231.176L71.8876 231.32C71.9516 231.256 71.9196 231.224 71.7916 231.224C71.6956 231.192 71.6156 231.192 71.5516 231.224L71.5036 231.464C71.4396 231.496 71.3756 231.496 71.3116 231.464C71.2476 231.432 71.1836 231.4 71.1196 231.368C70.9276 231.272 70.6236 231.224 70.2076 231.224C69.7916 231.224 69.3916 231.208 69.0076 231.176C68.6236 231.144 68.3836 231.064 68.2876 230.936L67.9036 231.128C67.7756 231.128 67.5836 231.112 67.3276 231.08C67.1036 231.016 66.9276 230.968 66.7996 230.936C66.5756 230.872 66.3196 230.808 66.0316 230.744C65.7756 230.68 65.5196 230.664 65.2636 230.696L65.5036 231.08V231.176C65.7276 231.304 65.9036 231.512 66.0316 231.8C66.1916 232.056 66.4316 232.152 66.7516 232.088L66.8956 232.712L67.2796 232.952C67.3116 232.92 67.3436 232.904 67.3756 232.904C67.4716 232.904 67.6316 232.968 67.8556 233.096C68.0796 233.224 68.2556 233.32 68.3836 233.384L68.5276 233.288L68.7676 233.72C68.7996 233.688 68.8316 233.672 68.8636 233.672C68.9596 233.672 69.0716 233.704 69.1996 233.768C69.3276 233.832 69.4076 233.848 69.4396 233.816L69.7756 233.912L70.1116 233.816C70.2396 234.008 70.3196 234.152 70.3516 234.248C70.3836 234.344 70.4316 234.408 70.4956 234.44C70.6556 234.504 70.6556 234.552 70.4956 234.584C70.3676 234.616 70.3036 234.664 70.3036 234.728L70.3516 234.824H70.7836C70.7836 234.728 70.8956 234.648 71.1196 234.584C71.3756 234.552 71.6316 234.536 71.8876 234.536C72.2716 234.536 72.4956 234.568 72.5596 234.632C72.6876 234.696 72.7196 234.696 72.6556 234.632L73.0876 234.584L73.3756 234.824C73.4396 234.728 73.5036 234.68 73.5676 234.68C73.6636 234.68 73.7436 234.696 73.8076 234.728C73.9036 234.792 73.9516 234.824 73.9516 234.824C74.0156 234.856 74.0796 234.792 74.1436 234.632C74.2396 234.504 74.3516 234.456 74.4796 234.488L74.6716 234.536C74.8956 234.536 75.1196 234.504 75.3436 234.44C75.5996 234.376 75.7436 234.44 75.7756 234.632L76.1116 234.392L76.3516 234.44L76.2556 234.824C76.2556 234.952 76.2716 235.016 76.3036 235.016C76.3676 235.016 76.4476 234.904 76.5436 234.68C76.6716 234.488 76.7356 234.472 76.7356 234.632L77.0716 234.248C77.1676 234.312 77.2956 234.344 77.4556 234.344C77.7116 234.344 77.9516 234.248 78.1756 234.056C78.3996 233.896 78.6716 233.784 78.9916 233.72L79.0396 233.816C79.1036 233.784 79.1676 233.752 79.2316 233.72C79.3276 233.72 79.3756 233.752 79.3756 233.816L79.9036 233.768C80.0316 233.672 80.2396 233.56 80.5276 233.432C80.8476 233.304 81.0716 233.208 81.1996 233.144L81.2476 232.952C81.2476 232.952 81.3276 232.952 81.4876 232.952C81.6796 232.92 81.7916 232.888 81.8236 232.856V232.808C81.8236 232.744 81.8236 232.648 81.8236 232.52C81.8236 232.36 81.8876 232.296 82.0156 232.328L82.2556 232.472C82.5436 232.376 82.7356 232.248 82.8316 232.088C82.9596 231.896 83.1516 231.72 83.4076 231.56C83.5036 231.496 83.5836 231.416 83.6476 231.32C83.7436 231.224 83.8556 231.16 83.9836 231.128C84.0156 231.128 84.0636 231.176 84.1276 231.272C84.2236 231.368 84.3196 231.352 84.4156 231.224L84.4636 230.744L84.8956 230.6L85.1356 230.264C85.1356 230.264 85.1356 230.28 85.1356 230.312C85.1676 230.312 85.1996 230.312 85.2316 230.312C85.3596 230.312 85.5036 230.184 85.6636 229.928C85.8236 229.672 85.8556 229.496 85.7596 229.4L86.2396 228.872C86.2076 228.68 86.2716 228.44 86.4316 228.152C86.6236 227.864 86.7196 227.512 86.7196 227.096C86.7196 226.84 86.6396 226.536 86.4796 226.184C86.3196 225.832 85.9996 225.448 85.5196 225.032L85.2796 224.888C84.8956 224.632 84.5436 224.44 84.2236 224.312C83.9356 224.152 83.5516 223.992 83.0716 223.832C83.0716 223.832 83.0236 223.8 82.9276 223.736L81.5836 223.352C81.4556 223.256 81.1676 223.176 80.7196 223.112C80.2716 223.048 79.9676 223 79.8076 222.968C79.7436 222.936 79.6636 222.888 79.5676 222.824C79.5036 222.76 79.4396 222.776 79.3756 222.872L78.9436 222.632C78.8796 222.664 78.7996 222.68 78.7036 222.68C78.6396 222.68 78.5756 222.664 78.5116 222.632C78.4796 222.6 78.3836 222.584 78.2236 222.584C77.9996 222.552 77.6316 222.456 77.1196 222.296C76.6396 222.136 76.3676 222.088 76.3036 222.152L75.0556 221.528L74.9116 221.576L74.4796 221.336C74.5756 221.464 74.5116 221.496 74.2876 221.432C74.0636 221.336 73.8076 221.224 73.5196 221.096C73.2316 220.936 73.0076 220.84 72.8476 220.808C72.3036 220.584 71.8076 220.264 71.3596 219.848C70.9436 219.432 70.7356 218.92 70.7356 218.312C70.7356 217.768 70.7676 217.384 70.8316 217.16C70.8956 216.936 70.9756 216.744 71.0716 216.584C71.1996 216.424 71.3116 216.184 71.4076 215.864C71.4716 215.768 71.5516 215.672 71.6476 215.576C71.7756 215.448 71.8556 215.32 71.8876 215.192L72.2716 214.952C72.3036 214.792 72.3836 214.632 72.5116 214.472C72.6716 214.312 72.8156 214.2 72.9436 214.136C73.3596 213.944 73.8236 213.624 74.3356 213.176C74.8796 212.696 75.4076 212.344 75.9196 212.12C76.0476 212.056 76.1596 212.008 76.2556 211.976C76.3516 211.912 76.4636 211.864 76.5916 211.832L76.6396 211.928C76.9276 211.832 77.4076 211.688 78.0796 211.496C78.7516 211.272 79.4876 211.048 80.2876 210.824C81.1196 210.6 81.8876 210.408 82.5916 210.248C83.3276 210.088 83.9036 210.008 84.3196 210.008C84.6076 210.008 84.7676 210.056 84.7996 210.152L85.3756 209.816C85.4076 209.848 85.4716 209.88 85.5676 209.912C85.6636 209.912 85.7276 209.896 85.7596 209.864L86.2396 210.008C86.3676 209.944 86.4636 209.912 86.5276 209.912C86.7196 209.912 86.9276 209.976 87.1516 210.104C87.4076 210.2 87.5996 210.232 87.7276 210.2C87.8876 210.136 87.9996 210.12 88.0636 210.152C88.1596 210.152 88.2556 210.152 88.3516 210.152H88.5436C88.6396 210.152 88.7356 210.168 88.8316 210.2C88.9596 210.2 89.0876 210.264 89.2156 210.392L89.4556 210.44C89.5516 210.536 89.5996 210.648 89.5996 210.776C89.6636 210.904 89.8556 210.984 90.1756 211.016C90.4956 211.048 90.7036 211.112 90.7996 211.208C91.0556 211.4 91.1996 211.72 91.2316 212.168C91.2956 212.584 91.3276 212.968 91.3276 213.32C91.2956 213.672 91.1516 214.104 90.8956 214.616C90.6716 215.096 90.3836 215.48 90.0316 215.768C89.8716 215.896 89.6316 216.04 89.3116 216.2C88.9916 216.328 88.7516 216.44 88.5916 216.536C88.2396 216.76 87.8556 216.872 87.4396 216.872C86.8316 216.872 86.5276 216.744 86.5276 216.488C86.5276 216.392 86.6396 216.296 86.8636 216.2C87.0236 216.136 87.1676 216.072 87.2956 216.008C87.4556 215.912 87.5996 215.8 87.7276 215.672C87.8556 215.608 87.9356 215.576 87.9676 215.576C88.0316 215.544 88.0796 215.512 88.1116 215.48C88.1756 215.448 88.2236 215.416 88.2556 215.384C88.2876 215.32 88.3516 215.256 88.4476 215.192C88.6396 215.032 88.8796 214.776 89.1676 214.424C89.4876 214.04 89.7116 213.752 89.8396 213.56C89.8716 213.4 89.9356 213.192 90.0316 212.936C90.1596 212.648 90.2236 212.392 90.2236 212.168C90.2236 211.976 90.1756 211.832 90.0796 211.736C90.0476 211.736 90.0316 211.72 90.0316 211.688L89.9836 211.592C89.7276 211.048 89.2156 210.744 88.4476 210.68C87.7116 210.584 87.0876 210.536 86.5756 210.536C86.5756 210.536 86.5436 210.52 86.4796 210.488C86.4156 210.456 86.3836 210.472 86.3836 210.536L85.3276 210.632L85.2316 210.536L84.2236 210.728L84.1276 210.68L83.0716 210.968C83.1036 210.904 83.0876 210.888 83.0236 210.92C82.9596 210.92 82.9276 210.92 82.9276 210.92L81.8716 211.208L81.8236 211.16L81.3436 211.448C81.3436 211.416 81.3276 211.384 81.2956 211.352C81.2636 211.32 81.2476 211.304 81.2476 211.304C81.2156 211.336 81.1836 211.384 81.1516 211.448C81.1196 211.48 81.0716 211.512 81.0076 211.544L80.9116 211.496L80.2396 211.736C80.2396 211.768 80.1756 211.784 80.0476 211.784C79.1836 212.168 78.2396 212.616 77.2156 213.128C76.2236 213.608 75.4556 214.296 74.9116 215.192L74.8156 215.096L74.3836 215.48C74.3516 215.512 74.3036 215.56 74.2396 215.624C74.2076 215.688 74.1596 215.8 74.0956 215.96C73.9996 216.216 73.8556 216.52 73.6636 216.872C73.5036 217.224 73.4236 217.56 73.4236 217.88C73.4236 218.2 73.4876 218.504 73.6156 218.792C73.7436 219.048 73.8396 219.112 73.9036 218.984L74.3356 219.272L74.4796 219.8L74.5756 219.752L75.1996 220.232H75.2956L76.0636 220.856L76.6396 221.192H77.0236L77.5996 221.384C77.6636 221.416 77.7116 221.464 77.7436 221.528C77.8076 221.56 77.8876 221.528 77.9836 221.432L78.4636 221.768C78.4956 221.736 78.5436 221.72 78.6076 221.72C78.6716 221.72 78.7356 221.752 78.7996 221.816C78.8636 221.848 78.9116 221.88 78.9436 221.912L79.0396 221.864L80.7196 222.536C80.7836 222.504 80.8636 222.488 80.9596 222.488C81.1196 222.488 81.2476 222.52 81.3436 222.584C81.4716 222.616 81.5996 222.648 81.7276 222.68C81.7916 222.712 81.8716 222.76 81.9676 222.824C82.0956 222.888 82.1596 222.936 82.1596 222.968C82.2236 223 82.2876 223.016 82.3516 223.016C82.4476 223.016 82.5276 223.016 82.5916 223.016L83.0236 223.16L83.4556 223.4L83.8876 223.448C83.8876 223.448 84.0156 223.512 84.2716 223.64C84.5596 223.736 84.8476 223.832 85.1356 223.928C85.4556 224.024 85.6316 224.088 85.6636 224.12L85.9516 224.408L85.9996 224.36L86.3356 224.552C86.6876 224.776 87.0396 225.208 87.3916 225.848C87.7756 226.456 87.9676 227.128 87.9676 227.864C87.9676 228.344 87.8876 228.824 87.7276 229.304C87.5996 229.752 87.4396 230.12 87.2476 230.408C86.7676 231.048 86.2396 231.624 85.6636 232.136C85.1196 232.648 84.6236 233.08 84.1756 233.432C84.0156 233.528 83.9036 233.608 83.8396 233.672C83.7756 233.736 83.6796 233.768 83.5516 233.768C83.4556 233.8 83.3756 233.848 83.3116 233.912C82.8636 234.168 82.3676 234.392 81.8236 234.584C81.2796 234.808 80.7996 235.016 80.3836 235.208C80.1916 235.272 80.0316 235.304 79.9036 235.304C79.7756 235.336 79.6476 235.368 79.5196 235.4C79.4876 235.4 79.4236 235.416 79.3276 235.448C79.2636 235.512 79.2316 235.528 79.2316 235.496L78.8956 235.736C78.8636 235.704 78.8156 235.688 78.7516 235.688C78.6236 235.688 78.4796 235.752 78.3196 235.88C78.1916 236.008 78.0636 236.056 77.9356 236.024H77.8876C77.7916 236.024 77.6636 236.04 77.5036 236.072C77.3756 236.136 77.2796 236.136 77.2156 236.072L76.5916 236.312L76.4956 236.072C76.4636 236.072 76.4156 236.104 76.3516 236.168C76.3196 236.264 76.2716 236.312 76.2076 236.312C76.2076 236.312 76.1436 236.28 76.0156 236.216C75.8876 236.152 75.7916 236.184 75.7276 236.312L75.1996 236.456C75.1676 236.328 75.0716 236.264 74.9116 236.264C74.7836 236.264 74.6716 236.312 74.5756 236.408L74.1916 236.216V236.264L73.8076 236.216L73.4236 236.456ZM87.2446 234.728C87.1806 234.536 87.1486 234.344 87.1486 234.152C87.1486 234.056 87.1646 233.96 87.1966 233.864C87.1966 233.8 87.2126 233.72 87.2446 233.624C87.2766 233.528 87.3566 233.272 87.4846 232.856C87.6446 232.44 87.7886 232.008 87.9166 231.56C88.0766 231.112 88.1886 230.856 88.2526 230.792C88.2526 230.792 88.3486 230.552 88.5406 230.072C88.7646 229.56 89.0046 229.032 89.2606 228.488C89.5166 227.912 89.7086 227.544 89.8366 227.384C89.9966 227.032 90.2366 226.6 90.5566 226.088C90.9086 225.544 91.2446 224.904 91.5646 224.168V223.928C91.5646 223.832 91.5646 223.752 91.5646 223.688C91.5966 223.592 91.6286 223.496 91.6606 223.4C91.7886 223.144 91.9006 222.968 91.9966 222.872C92.1246 222.776 92.2526 222.6 92.3806 222.344C92.3806 222.28 92.3806 222.216 92.3806 222.152C92.4126 222.088 92.4446 222.024 92.4766 221.96C92.4126 222.024 92.3966 221.976 92.4286 221.816C92.3646 221.816 92.4286 221.656 92.6206 221.336C92.7486 221.048 92.8446 220.888 92.9086 220.856H92.9566C93.0846 220.664 93.1966 220.504 93.2926 220.376C93.3886 220.216 93.4206 220.12 93.3886 220.088V219.992C93.3886 219.768 93.4526 219.56 93.5806 219.368C93.7406 219.176 93.8846 218.968 94.0126 218.744C94.1086 218.616 94.1886 218.552 94.2526 218.552C94.3166 218.552 94.3486 218.568 94.3486 218.6C94.3806 218.6 94.4126 218.6 94.4446 218.6C94.5406 218.6 94.5886 218.52 94.5886 218.36C94.5886 218.296 94.5726 218.216 94.5406 218.12C94.5406 218.024 94.5246 217.912 94.4926 217.784C94.5246 217.624 94.6526 217.496 94.8766 217.4L95.0206 217.352C95.1806 216.68 95.3726 216.232 95.5966 216.008C95.6606 215.944 95.7246 215.88 95.7886 215.816C95.8526 215.752 95.9166 215.688 95.9806 215.624C96.3646 215.208 96.6526 214.76 96.8446 214.28C96.9086 214.152 96.9886 214.056 97.0846 213.992C97.2126 213.896 97.3246 213.784 97.4206 213.656C97.4846 213.56 97.5006 213.464 97.4686 213.368C97.4686 213.24 97.4846 213.128 97.5166 213.032C97.6766 212.776 97.7886 212.632 97.8526 212.6C97.9166 212.568 97.9806 212.536 98.0446 212.504C98.1406 212.44 98.3006 212.296 98.5246 212.072C98.6206 211.912 98.7166 211.752 98.8126 211.592C98.9406 211.432 99.0686 211.272 99.1966 211.112C99.3886 210.888 99.5966 210.728 99.8206 210.632C100.045 210.536 100.269 210.392 100.493 210.2C100.557 210.136 100.589 210.04 100.589 209.912C100.589 209.752 100.621 209.64 100.685 209.576C101.805 208.68 103.005 207.928 104.285 207.32C105.597 206.712 106.605 206.408 107.309 206.408C107.565 206.408 107.805 206.424 108.029 206.456C108.285 206.488 108.525 206.536 108.749 206.6H108.845C109.005 206.6 109.165 206.632 109.325 206.696C109.485 206.76 109.629 206.824 109.757 206.888C109.885 206.888 110.045 206.92 110.237 206.984C110.397 207.048 110.493 207.144 110.525 207.272C110.557 207.4 110.525 207.496 110.429 207.56C110.397 207.592 110.349 207.592 110.285 207.56C110.221 207.528 110.157 207.512 110.093 207.512C110.029 207.512 109.965 207.48 109.901 207.416C109.837 207.352 109.773 207.304 109.709 207.272C109.581 207.272 109.437 207.288 109.277 207.32C109.149 207.352 109.005 207.368 108.845 207.368H108.701C108.477 207.368 108.317 207.336 108.221 207.272C108.157 207.176 107.997 207.16 107.741 207.224C107.709 207.224 107.613 207.24 107.453 207.272C107.293 207.304 107.181 207.32 107.117 207.32C105.965 207.608 104.957 208.088 104.093 208.76C103.229 209.4 102.461 210.12 101.789 210.92C101.149 211.72 100.525 212.488 99.9166 213.224C99.6286 213.8 99.3406 214.264 99.0526 214.616C99.0206 214.648 98.9886 214.632 98.9566 214.568C98.9246 214.504 98.8926 214.504 98.8606 214.568C98.7646 214.664 98.6846 214.824 98.6206 215.048C98.5886 215.24 98.5246 215.4 98.4286 215.528C98.3966 215.56 98.3646 215.544 98.3326 215.48C98.3006 215.416 98.2526 215.416 98.1886 215.48C98.1566 215.512 98.1086 215.64 98.0446 215.864C98.0126 216.056 97.9646 216.184 97.9006 216.248C97.5166 216.76 97.1006 217.256 96.6526 217.736C96.2046 218.216 95.7566 218.776 95.3086 219.416C94.6686 220.408 94.0606 221.384 93.4846 222.344C92.9086 223.304 92.3006 224.36 91.6606 225.512C91.4366 225.896 91.2606 226.248 91.1326 226.568C91.0366 226.856 90.9246 227.128 90.7966 227.384C90.7326 227.48 90.7006 227.608 90.7006 227.768C90.7006 227.992 90.8286 228.104 91.0846 228.104C91.2766 228.104 91.4686 228.056 91.6606 227.96L92.3326 227.672H92.4286C92.5246 227.672 92.5886 227.72 92.6206 227.816C92.6846 227.88 92.6206 227.976 92.4286 228.104C92.3006 228.168 92.2206 228.248 92.1886 228.344C92.1566 228.44 92.0766 228.568 91.9486 228.728C91.8846 228.792 91.7886 228.904 91.6606 229.064C91.5646 229.224 91.5166 229.32 91.5166 229.352C91.4846 229.448 91.4366 229.48 91.3726 229.448C91.3406 229.416 91.2446 229.464 91.0846 229.592C91.0526 229.624 91.0206 229.688 90.9886 229.784C90.9886 229.88 90.9726 229.96 90.9406 230.024C90.9086 230.12 90.8446 230.2 90.7486 230.264C90.6846 230.296 90.6526 230.328 90.6526 230.36C90.6206 230.488 90.5566 230.568 90.4606 230.6C90.3966 230.6 90.3326 230.632 90.2686 230.696C90.2366 230.728 90.2366 230.776 90.2686 230.84C90.3006 230.904 90.2846 230.968 90.2206 231.032L89.7406 232.04C89.7086 232.104 89.6606 232.168 89.5966 232.232C89.5646 232.296 89.5166 232.344 89.4526 232.376C89.4206 232.376 89.3566 232.36 89.2606 232.328C89.1966 232.296 89.1646 232.312 89.1646 232.376C89.1326 232.408 89.1326 232.504 89.1646 232.664C89.2286 232.792 89.2126 232.888 89.1166 232.952C89.0206 233.016 88.9246 233.144 88.8286 233.336C88.7646 233.56 88.7006 233.704 88.6366 233.768C88.5086 233.896 88.3966 233.976 88.3006 234.008C88.2046 234.072 88.1086 234.168 88.0126 234.296C87.9806 234.328 87.8686 234.456 87.6766 234.68C87.4846 234.936 87.3406 234.952 87.2446 234.728ZM102.125 233.144C102.029 233.144 101.933 233.144 101.837 233.144C101.741 233.144 101.645 233.128 101.549 233.096C100.973 232.968 100.509 232.6 100.157 231.992C99.8366 231.352 99.5806 230.616 99.3886 229.784C99.2286 228.92 99.1166 228.072 99.0526 227.24C99.0206 226.376 99.0046 225.672 99.0046 225.128C98.9726 224.264 98.7486 223.832 98.3326 223.832C98.1406 223.832 97.9166 223.912 97.6606 224.072C97.6286 224.136 97.5646 224.184 97.4686 224.216C97.4046 224.216 97.3086 224.248 97.1806 224.312L97.0366 224.456C97.0366 224.488 97.0046 224.504 96.9406 224.504C96.8766 224.472 96.8446 224.472 96.8446 224.504C96.8766 224.728 96.8126 224.792 96.6526 224.696C96.4606 224.824 96.3166 224.936 96.2206 225.032C96.2206 225.064 96.1886 225.112 96.1246 225.176L96.0766 225.224C96.0446 225.256 96.0126 225.304 95.9806 225.368C95.9486 225.4 95.8846 225.4 95.7886 225.368L95.6446 225.512C95.6446 225.544 95.6286 225.592 95.5966 225.656C95.5646 225.72 95.5006 225.736 95.4046 225.704L95.1646 225.896C95.0046 226.152 94.8446 226.28 94.6846 226.28L94.3486 226.712L94.2046 226.76C94.2046 226.888 94.0926 226.984 93.8686 227.048C93.8366 227.08 93.7246 227.16 93.5326 227.288C93.3406 227.384 93.2446 227.432 93.2446 227.432C93.1806 227.4 93.1006 227.384 93.0046 227.384C92.9406 227.384 92.9726 227.288 93.1006 227.096C93.1326 227.032 93.1966 226.984 93.2926 226.952C93.3886 226.888 93.5006 226.792 93.6286 226.664C93.7246 226.536 93.8046 226.408 93.8686 226.28C93.9646 226.152 94.0286 226.088 94.0606 226.088L94.8766 225.368C94.9406 225.496 94.9726 225.496 94.9726 225.368C94.9726 225.24 95.0046 225.192 95.0686 225.224C95.1646 225.096 95.2606 224.984 95.3566 224.888C95.4846 224.792 95.6126 224.696 95.7406 224.6C95.7406 224.568 95.8046 224.504 95.9326 224.408C96.0606 224.344 96.1406 224.312 96.1726 224.312C96.2046 224.312 96.2686 224.248 96.3646 224.12L96.6526 223.928C96.6846 223.864 96.7166 223.864 96.7486 223.928C96.8126 223.992 96.8606 224.008 96.8926 223.976L96.9406 223.688C96.9726 223.592 97.0526 223.512 97.1806 223.448C97.3406 223.384 97.4846 223.304 97.6126 223.208C97.9326 222.888 98.1886 222.728 98.3806 222.728C98.4126 222.76 98.4766 222.76 98.5726 222.728C98.8286 222.6 99.1486 222.536 99.5326 222.536C100.013 222.536 100.413 222.712 100.733 223.064C100.829 223.16 100.925 223.304 101.021 223.496C101.021 223.496 101.053 223.592 101.117 223.784L101.213 224.168C101.277 224.328 101.229 224.44 101.069 224.504C101.229 224.632 101.293 224.712 101.261 224.744C101.229 224.776 101.213 224.824 101.213 224.888L101.261 225.464V225.752C101.261 225.848 101.261 225.944 101.261 226.04C101.261 226.104 101.245 226.216 101.213 226.376C101.373 226.536 101.389 226.632 101.261 226.664C101.261 226.664 101.245 226.68 101.213 226.712C101.213 226.712 101.197 226.712 101.165 226.712V226.856L101.309 227L101.213 227.288C101.245 227.256 101.261 227.24 101.261 227.24C101.293 227.24 101.309 227.24 101.309 227.24L101.165 228.104C101.165 228.392 101.197 228.616 101.261 228.776C101.325 228.904 101.293 228.968 101.165 228.968H101.117C101.181 229.096 101.213 229.192 101.213 229.256C101.213 229.384 101.197 229.496 101.165 229.592C101.133 229.656 101.117 229.752 101.117 229.88V229.928C101.181 230.024 101.229 230.184 101.261 230.408C101.325 230.632 101.357 230.84 101.357 231.032C101.357 231.224 101.341 231.352 101.309 231.416L101.357 231.464C101.421 231.528 101.485 231.592 101.549 231.656C101.645 231.688 101.661 231.736 101.597 231.8C101.533 231.864 101.533 231.896 101.597 231.896C101.661 231.96 101.709 231.992 101.741 231.992C101.869 232.056 101.965 232.088 102.029 232.088L102.125 232.136C102.157 232.168 102.189 232.184 102.221 232.184C102.861 232.28 103.485 231.96 104.093 231.224C104.157 231.128 104.237 231.08 104.333 231.08C104.397 231.08 104.445 231.128 104.477 231.224C104.541 231.32 104.525 231.432 104.429 231.56C104.013 232.168 103.613 232.584 103.229 232.808C102.845 233.032 102.477 233.144 102.125 233.144ZM102.715 234.728C102.651 234.536 102.619 234.344 102.619 234.152C102.619 234.056 102.635 233.96 102.667 233.864C102.667 233.8 102.683 233.72 102.715 233.624C102.747 233.528 102.827 233.272 102.955 232.856C103.115 232.44 103.259 232.008 103.387 231.56C103.547 231.112 103.659 230.856 103.723 230.792C103.723 230.792 103.819 230.552 104.011 230.072C104.235 229.56 104.475 229.032 104.731 228.488C104.987 227.912 105.179 227.544 105.307 227.384C105.467 227.032 105.707 226.6 106.027 226.088C106.379 225.544 106.715 224.904 107.035 224.168V223.928C107.035 223.832 107.035 223.752 107.035 223.688C107.067 223.592 107.099 223.496 107.131 223.4C107.259 223.144 107.371 222.968 107.467 222.872C107.595 222.776 107.723 222.6 107.851 222.344C107.851 222.28 107.851 222.216 107.851 222.152C107.883 222.088 107.915 222.024 107.947 221.96C107.883 222.024 107.867 221.976 107.899 221.816C107.835 221.816 107.899 221.656 108.091 221.336C108.219 221.048 108.315 220.888 108.379 220.856H108.427C108.555 220.664 108.667 220.504 108.763 220.376C108.859 220.216 108.891 220.12 108.859 220.088V219.992C108.859 219.768 108.923 219.56 109.051 219.368C109.211 219.176 109.355 218.968 109.483 218.744C109.579 218.616 109.659 218.552 109.723 218.552C109.787 218.552 109.819 218.568 109.819 218.6C109.851 218.6 109.883 218.6 109.915 218.6C110.011 218.6 110.059 218.52 110.059 218.36C110.059 218.296 110.043 218.216 110.011 218.12C110.011 218.024 109.995 217.912 109.963 217.784C109.995 217.624 110.123 217.496 110.347 217.4L110.491 217.352C110.651 216.68 110.843 216.232 111.067 216.008C111.131 215.944 111.195 215.88 111.259 215.816C111.323 215.752 111.387 215.688 111.451 215.624C111.835 215.208 112.123 214.76 112.315 214.28C112.379 214.152 112.459 214.056 112.555 213.992C112.683 213.896 112.795 213.784 112.891 213.656C112.955 213.56 112.971 213.464 112.939 213.368C112.939 213.24 112.955 213.128 112.987 213.032C113.147 212.776 113.259 212.632 113.323 212.6C113.387 212.568 113.451 212.536 113.515 212.504C113.611 212.44 113.771 212.296 113.995 212.072C114.091 211.912 114.187 211.752 114.283 211.592C114.411 211.432 114.539 211.272 114.667 211.112C114.859 210.888 115.067 210.728 115.291 210.632C115.515 210.536 115.739 210.392 115.963 210.2C116.027 210.136 116.059 210.04 116.059 209.912C116.059 209.752 116.091 209.64 116.155 209.576C117.275 208.68 118.475 207.928 119.755 207.32C121.067 206.712 122.075 206.408 122.779 206.408C123.035 206.408 123.275 206.424 123.499 206.456C123.755 206.488 123.995 206.536 124.219 206.6H124.315C124.475 206.6 124.635 206.632 124.795 206.696C124.955 206.76 125.099 206.824 125.227 206.888C125.355 206.888 125.515 206.92 125.707 206.984C125.867 207.048 125.963 207.144 125.995 207.272C126.027 207.4 125.995 207.496 125.899 207.56C125.867 207.592 125.819 207.592 125.755 207.56C125.691 207.528 125.627 207.512 125.563 207.512C125.499 207.512 125.435 207.48 125.371 207.416C125.307 207.352 125.243 207.304 125.179 207.272C125.051 207.272 124.907 207.288 124.747 207.32C124.619 207.352 124.475 207.368 124.315 207.368H124.171C123.947 207.368 123.787 207.336 123.691 207.272C123.627 207.176 123.467 207.16 123.211 207.224C123.179 207.224 123.083 207.24 122.923 207.272C122.763 207.304 122.651 207.32 122.587 207.32C121.435 207.608 120.427 208.088 119.563 208.76C118.699 209.4 117.931 210.12 117.259 210.92C116.619 211.72 115.995 212.488 115.387 213.224C115.099 213.8 114.811 214.264 114.523 214.616C114.491 214.648 114.459 214.632 114.427 214.568C114.395 214.504 114.363 214.504 114.331 214.568C114.235 214.664 114.155 214.824 114.091 215.048C114.059 215.24 113.995 215.4 113.899 215.528C113.867 215.56 113.835 215.544 113.803 215.48C113.771 215.416 113.723 215.416 113.659 215.48C113.627 215.512 113.579 215.64 113.515 215.864C113.483 216.056 113.435 216.184 113.371 216.248C112.987 216.76 112.571 217.256 112.123 217.736C111.675 218.216 111.227 218.776 110.779 219.416C110.139 220.408 109.531 221.384 108.955 222.344C108.379 223.304 107.771 224.36 107.131 225.512C106.907 225.896 106.731 226.248 106.603 226.568C106.507 226.856 106.395 227.128 106.267 227.384C106.203 227.48 106.171 227.608 106.171 227.768C106.171 227.992 106.299 228.104 106.555 228.104C106.747 228.104 106.939 228.056 107.131 227.96L107.803 227.672H107.899C107.995 227.672 108.059 227.72 108.091 227.816C108.155 227.88 108.091 227.976 107.899 228.104C107.771 228.168 107.691 228.248 107.659 228.344C107.627 228.44 107.547 228.568 107.419 228.728C107.355 228.792 107.259 228.904 107.131 229.064C107.035 229.224 106.987 229.32 106.987 229.352C106.955 229.448 106.907 229.48 106.843 229.448C106.811 229.416 106.715 229.464 106.555 229.592C106.523 229.624 106.491 229.688 106.459 229.784C106.459 229.88 106.443 229.96 106.411 230.024C106.379 230.12 106.315 230.2 106.219 230.264C106.155 230.296 106.123 230.328 106.123 230.36C106.091 230.488 106.027 230.568 105.931 230.6C105.867 230.6 105.803 230.632 105.739 230.696C105.707 230.728 105.707 230.776 105.739 230.84C105.771 230.904 105.755 230.968 105.691 231.032L105.211 232.04C105.179 232.104 105.131 232.168 105.067 232.232C105.035 232.296 104.987 232.344 104.923 232.376C104.891 232.376 104.827 232.36 104.731 232.328C104.667 232.296 104.635 232.312 104.635 232.376C104.603 232.408 104.603 232.504 104.635 232.664C104.699 232.792 104.683 232.888 104.587 232.952C104.491 233.016 104.395 233.144 104.299 233.336C104.235 233.56 104.171 233.704 104.107 233.768C103.979 233.896 103.867 233.976 103.771 234.008C103.675 234.072 103.579 234.168 103.483 234.296C103.451 234.328 103.339 234.456 103.147 234.68C102.955 234.936 102.811 234.952 102.715 234.728ZM117.595 233.144C117.499 233.144 117.403 233.144 117.307 233.144C117.211 233.144 117.115 233.128 117.019 233.096C116.443 232.968 115.979 232.6 115.627 231.992C115.307 231.352 115.051 230.616 114.859 229.784C114.699 228.92 114.587 228.072 114.523 227.24C114.491 226.376 114.475 225.672 114.475 225.128C114.443 224.264 114.219 223.832 113.803 223.832C113.611 223.832 113.387 223.912 113.131 224.072C113.099 224.136 113.035 224.184 112.939 224.216C112.875 224.216 112.779 224.248 112.651 224.312L112.507 224.456C112.507 224.488 112.475 224.504 112.411 224.504C112.347 224.472 112.315 224.472 112.315 224.504C112.347 224.728 112.283 224.792 112.123 224.696C111.931 224.824 111.787 224.936 111.691 225.032C111.691 225.064 111.659 225.112 111.595 225.176L111.547 225.224C111.515 225.256 111.483 225.304 111.451 225.368C111.419 225.4 111.355 225.4 111.259 225.368L111.115 225.512C111.115 225.544 111.099 225.592 111.067 225.656C111.035 225.72 110.971 225.736 110.875 225.704L110.635 225.896C110.475 226.152 110.315 226.28 110.155 226.28L109.819 226.712L109.675 226.76C109.675 226.888 109.563 226.984 109.339 227.048C109.307 227.08 109.195 227.16 109.003 227.288C108.811 227.384 108.715 227.432 108.715 227.432C108.651 227.4 108.571 227.384 108.475 227.384C108.411 227.384 108.443 227.288 108.571 227.096C108.603 227.032 108.667 226.984 108.763 226.952C108.859 226.888 108.971 226.792 109.099 226.664C109.195 226.536 109.275 226.408 109.339 226.28C109.435 226.152 109.499 226.088 109.531 226.088L110.347 225.368C110.411 225.496 110.443 225.496 110.443 225.368C110.443 225.24 110.475 225.192 110.539 225.224C110.635 225.096 110.731 224.984 110.827 224.888C110.955 224.792 111.083 224.696 111.211 224.6C111.211 224.568 111.275 224.504 111.403 224.408C111.531 224.344 111.611 224.312 111.643 224.312C111.675 224.312 111.739 224.248 111.835 224.12L112.123 223.928C112.155 223.864 112.187 223.864 112.219 223.928C112.283 223.992 112.331 224.008 112.363 223.976L112.411 223.688C112.443 223.592 112.523 223.512 112.651 223.448C112.811 223.384 112.955 223.304 113.083 223.208C113.403 222.888 113.659 222.728 113.851 222.728C113.883 222.76 113.947 222.76 114.043 222.728C114.299 222.6 114.619 222.536 115.003 222.536C115.483 222.536 115.883 222.712 116.203 223.064C116.299 223.16 116.395 223.304 116.491 223.496C116.491 223.496 116.523 223.592 116.587 223.784L116.683 224.168C116.747 224.328 116.699 224.44 116.539 224.504C116.699 224.632 116.763 224.712 116.731 224.744C116.699 224.776 116.683 224.824 116.683 224.888L116.731 225.464V225.752C116.731 225.848 116.731 225.944 116.731 226.04C116.731 226.104 116.715 226.216 116.683 226.376C116.843 226.536 116.859 226.632 116.731 226.664C116.731 226.664 116.715 226.68 116.683 226.712C116.683 226.712 116.667 226.712 116.635 226.712V226.856L116.779 227L116.683 227.288C116.715 227.256 116.731 227.24 116.731 227.24C116.763 227.24 116.779 227.24 116.779 227.24L116.635 228.104C116.635 228.392 116.667 228.616 116.731 228.776C116.795 228.904 116.763 228.968 116.635 228.968H116.587C116.651 229.096 116.683 229.192 116.683 229.256C116.683 229.384 116.667 229.496 116.635 229.592C116.603 229.656 116.587 229.752 116.587 229.88V229.928C116.651 230.024 116.699 230.184 116.731 230.408C116.795 230.632 116.827 230.84 116.827 231.032C116.827 231.224 116.811 231.352 116.779 231.416L116.827 231.464C116.891 231.528 116.955 231.592 117.019 231.656C117.115 231.688 117.131 231.736 117.067 231.8C117.003 231.864 117.003 231.896 117.067 231.896C117.131 231.96 117.179 231.992 117.211 231.992C117.339 232.056 117.435 232.088 117.499 232.088L117.595 232.136C117.627 232.168 117.659 232.184 117.691 232.184C118.331 232.28 118.955 231.96 119.563 231.224C119.627 231.128 119.707 231.08 119.803 231.08C119.867 231.08 119.915 231.128 119.947 231.224C120.011 231.32 119.995 231.432 119.899 231.56C119.483 232.168 119.083 232.584 118.699 232.808C118.315 233.032 117.947 233.144 117.595 233.144ZM118.186 234.728C118.122 234.536 118.09 234.344 118.09 234.152C118.09 234.056 118.106 233.96 118.138 233.864C118.138 233.8 118.154 233.72 118.186 233.624C118.218 233.528 118.298 233.272 118.426 232.856C118.586 232.44 118.73 232.008 118.858 231.56C119.018 231.112 119.13 230.856 119.194 230.792C119.194 230.792 119.29 230.552 119.482 230.072C119.706 229.56 119.946 229.032 120.202 228.488C120.458 227.912 120.65 227.544 120.778 227.384C120.938 227.032 121.178 226.6 121.498 226.088C121.85 225.544 122.186 224.904 122.506 224.168V223.928C122.506 223.832 122.506 223.752 122.506 223.688C122.538 223.592 122.57 223.496 122.602 223.4C122.73 223.144 122.842 222.968 122.938 222.872C123.066 222.776 123.194 222.6 123.322 222.344C123.322 222.28 123.322 222.216 123.322 222.152C123.354 222.088 123.386 222.024 123.418 221.96C123.354 222.024 123.338 221.976 123.37 221.816C123.306 221.816 123.37 221.656 123.562 221.336C123.69 221.048 123.786 220.888 123.85 220.856H123.898C124.026 220.664 124.138 220.504 124.234 220.376C124.33 220.216 124.362 220.12 124.33 220.088V219.992C124.33 219.768 124.394 219.56 124.522 219.368C124.682 219.176 124.826 218.968 124.954 218.744C125.05 218.616 125.13 218.552 125.194 218.552C125.258 218.552 125.29 218.568 125.29 218.6C125.322 218.6 125.354 218.6 125.386 218.6C125.482 218.6 125.53 218.52 125.53 218.36C125.53 218.296 125.514 218.216 125.482 218.12C125.482 218.024 125.466 217.912 125.434 217.784C125.466 217.624 125.594 217.496 125.818 217.4L125.962 217.352C126.122 216.68 126.314 216.232 126.538 216.008C126.602 215.944 126.666 215.88 126.73 215.816C126.794 215.752 126.858 215.688 126.922 215.624C127.306 215.208 127.594 214.76 127.786 214.28C127.85 214.152 127.93 214.056 128.026 213.992C128.154 213.896 128.266 213.784 128.362 213.656C128.426 213.56 128.442 213.464 128.41 213.368C128.41 213.24 128.426 213.128 128.458 213.032C128.618 212.776 128.73 212.632 128.794 212.6C128.858 212.568 128.922 212.536 128.986 212.504C129.082 212.44 129.242 212.296 129.466 212.072C129.562 211.912 129.658 211.752 129.754 211.592C129.882 211.432 130.01 211.272 130.138 211.112C130.33 210.888 130.538 210.728 130.762 210.632C130.986 210.536 131.21 210.392 131.434 210.2C131.498 210.136 131.53 210.04 131.53 209.912C131.53 209.752 131.562 209.64 131.626 209.576C132.746 208.68 133.946 207.928 135.226 207.32C136.538 206.712 137.546 206.408 138.25 206.408C138.506 206.408 138.746 206.424 138.97 206.456C139.226 206.488 139.466 206.536 139.69 206.6H139.786C139.946 206.6 140.106 206.632 140.266 206.696C140.426 206.76 140.57 206.824 140.698 206.888C140.826 206.888 140.986 206.92 141.178 206.984C141.338 207.048 141.434 207.144 141.466 207.272C141.498 207.4 141.466 207.496 141.37 207.56C141.338 207.592 141.29 207.592 141.226 207.56C141.162 207.528 141.098 207.512 141.034 207.512C140.97 207.512 140.906 207.48 140.842 207.416C140.778 207.352 140.714 207.304 140.65 207.272C140.522 207.272 140.378 207.288 140.218 207.32C140.09 207.352 139.946 207.368 139.786 207.368H139.642C139.418 207.368 139.258 207.336 139.162 207.272C139.098 207.176 138.938 207.16 138.682 207.224C138.65 207.224 138.554 207.24 138.394 207.272C138.234 207.304 138.122 207.32 138.058 207.32C136.906 207.608 135.898 208.088 135.034 208.76C134.17 209.4 133.402 210.12 132.73 210.92C132.09 211.72 131.466 212.488 130.858 213.224C130.57 213.8 130.282 214.264 129.994 214.616C129.962 214.648 129.93 214.632 129.898 214.568C129.866 214.504 129.834 214.504 129.802 214.568C129.706 214.664 129.626 214.824 129.562 215.048C129.53 215.24 129.466 215.4 129.37 215.528C129.338 215.56 129.306 215.544 129.274 215.48C129.242 215.416 129.194 215.416 129.13 215.48C129.098 215.512 129.05 215.64 128.986 215.864C128.954 216.056 128.906 216.184 128.842 216.248C128.458 216.76 128.042 217.256 127.594 217.736C127.146 218.216 126.698 218.776 126.25 219.416C125.61 220.408 125.002 221.384 124.426 222.344C123.85 223.304 123.242 224.36 122.602 225.512C122.378 225.896 122.202 226.248 122.074 226.568C121.978 226.856 121.866 227.128 121.738 227.384C121.674 227.48 121.642 227.608 121.642 227.768C121.642 227.992 121.77 228.104 122.026 228.104C122.218 228.104 122.41 228.056 122.602 227.96L123.274 227.672H123.37C123.466 227.672 123.53 227.72 123.562 227.816C123.626 227.88 123.562 227.976 123.37 228.104C123.242 228.168 123.162 228.248 123.13 228.344C123.098 228.44 123.018 228.568 122.89 228.728C122.826 228.792 122.73 228.904 122.602 229.064C122.506 229.224 122.458 229.32 122.458 229.352C122.426 229.448 122.378 229.48 122.314 229.448C122.282 229.416 122.186 229.464 122.026 229.592C121.994 229.624 121.962 229.688 121.93 229.784C121.93 229.88 121.914 229.96 121.882 230.024C121.85 230.12 121.786 230.2 121.69 230.264C121.626 230.296 121.594 230.328 121.594 230.36C121.562 230.488 121.498 230.568 121.402 230.6C121.338 230.6 121.274 230.632 121.21 230.696C121.178 230.728 121.178 230.776 121.21 230.84C121.242 230.904 121.226 230.968 121.162 231.032L120.682 232.04C120.65 232.104 120.602 232.168 120.538 232.232C120.506 232.296 120.458 232.344 120.394 232.376C120.362 232.376 120.298 232.36 120.202 232.328C120.138 232.296 120.106 232.312 120.106 232.376C120.074 232.408 120.074 232.504 120.106 232.664C120.17 232.792 120.154 232.888 120.058 232.952C119.962 233.016 119.866 233.144 119.77 233.336C119.706 233.56 119.642 233.704 119.578 233.768C119.45 233.896 119.338 233.976 119.242 234.008C119.146 234.072 119.05 234.168 118.954 234.296C118.922 234.328 118.81 234.456 118.618 234.68C118.426 234.936 118.282 234.952 118.186 234.728ZM133.066 233.144C132.97 233.144 132.874 233.144 132.778 233.144C132.682 233.144 132.586 233.128 132.49 233.096C131.914 232.968 131.45 232.6 131.098 231.992C130.778 231.352 130.522 230.616 130.33 229.784C130.17 228.92 130.058 228.072 129.994 227.24C129.962 226.376 129.946 225.672 129.946 225.128C129.914 224.264 129.69 223.832 129.274 223.832C129.082 223.832 128.858 223.912 128.602 224.072C128.57 224.136 128.506 224.184 128.41 224.216C128.346 224.216 128.25 224.248 128.122 224.312L127.978 224.456C127.978 224.488 127.946 224.504 127.882 224.504C127.818 224.472 127.786 224.472 127.786 224.504C127.818 224.728 127.754 224.792 127.594 224.696C127.402 224.824 127.258 224.936 127.162 225.032C127.162 225.064 127.13 225.112 127.066 225.176L127.018 225.224C126.986 225.256 126.954 225.304 126.922 225.368C126.89 225.4 126.826 225.4 126.73 225.368L126.586 225.512C126.586 225.544 126.57 225.592 126.538 225.656C126.506 225.72 126.442 225.736 126.346 225.704L126.106 225.896C125.946 226.152 125.786 226.28 125.626 226.28L125.29 226.712L125.146 226.76C125.146 226.888 125.034 226.984 124.81 227.048C124.778 227.08 124.666 227.16 124.474 227.288C124.282 227.384 124.186 227.432 124.186 227.432C124.122 227.4 124.042 227.384 123.946 227.384C123.882 227.384 123.914 227.288 124.042 227.096C124.074 227.032 124.138 226.984 124.234 226.952C124.33 226.888 124.442 226.792 124.57 226.664C124.666 226.536 124.746 226.408 124.81 226.28C124.906 226.152 124.97 226.088 125.002 226.088L125.818 225.368C125.882 225.496 125.914 225.496 125.914 225.368C125.914 225.24 125.946 225.192 126.01 225.224C126.106 225.096 126.202 224.984 126.298 224.888C126.426 224.792 126.554 224.696 126.682 224.6C126.682 224.568 126.746 224.504 126.874 224.408C127.002 224.344 127.082 224.312 127.114 224.312C127.146 224.312 127.21 224.248 127.306 224.12L127.594 223.928C127.626 223.864 127.658 223.864 127.69 223.928C127.754 223.992 127.802 224.008 127.834 223.976L127.882 223.688C127.914 223.592 127.994 223.512 128.122 223.448C128.282 223.384 128.426 223.304 128.554 223.208C128.874 222.888 129.13 222.728 129.322 222.728C129.354 222.76 129.418 222.76 129.514 222.728C129.77 222.6 130.09 222.536 130.474 222.536C130.954 222.536 131.354 222.712 131.674 223.064C131.77 223.16 131.866 223.304 131.962 223.496C131.962 223.496 131.994 223.592 132.058 223.784L132.154 224.168C132.218 224.328 132.17 224.44 132.01 224.504C132.17 224.632 132.234 224.712 132.202 224.744C132.17 224.776 132.154 224.824 132.154 224.888L132.202 225.464V225.752C132.202 225.848 132.202 225.944 132.202 226.04C132.202 226.104 132.186 226.216 132.154 226.376C132.314 226.536 132.33 226.632 132.202 226.664C132.202 226.664 132.186 226.68 132.154 226.712C132.154 226.712 132.138 226.712 132.106 226.712V226.856L132.25 227L132.154 227.288C132.186 227.256 132.202 227.24 132.202 227.24C132.234 227.24 132.25 227.24 132.25 227.24L132.106 228.104C132.106 228.392 132.138 228.616 132.202 228.776C132.266 228.904 132.234 228.968 132.106 228.968H132.058C132.122 229.096 132.154 229.192 132.154 229.256C132.154 229.384 132.138 229.496 132.106 229.592C132.074 229.656 132.058 229.752 132.058 229.88V229.928C132.122 230.024 132.17 230.184 132.202 230.408C132.266 230.632 132.298 230.84 132.298 231.032C132.298 231.224 132.282 231.352 132.25 231.416L132.298 231.464C132.362 231.528 132.426 231.592 132.49 231.656C132.586 231.688 132.602 231.736 132.538 231.8C132.474 231.864 132.474 231.896 132.538 231.896C132.602 231.96 132.65 231.992 132.682 231.992C132.81 232.056 132.906 232.088 132.97 232.088L133.066 232.136C133.098 232.168 133.13 232.184 133.162 232.184C133.802 232.28 134.426 231.96 135.034 231.224C135.098 231.128 135.178 231.08 135.274 231.08C135.338 231.08 135.386 231.128 135.418 231.224C135.482 231.32 135.466 231.432 135.37 231.56C134.954 232.168 134.554 232.584 134.17 232.808C133.786 233.032 133.418 233.144 133.066 233.144Z" fill="white"/>
</svg>
